<?xml version="1.0" encoding="utf-8"?>
<!-- Generator: Adobe Illustrator 23.0.3, SVG Export Plug-In . SVG Version: 6.00 Build 0)  -->
<svg version="1.1" id="image" xmlns="http://www.w3.org/2000/svg" xmlns:xlink="http://www.w3.org/1999/xlink" x="0px" y="0px"
	 viewBox="0 0 6339.7 971.7" style="enable-background:new 0 0 6339.7 971.7;" xml:space="preserve">
<style type="text/css">
	.st0{fill:#F6D1CB;}
	.st1{fill:#FFEBE9;}
	.st2{fill:#FFFFFF;}
	.st3{fill:#132663;}
	.st4{fill:#B8BED0;}
	.st5{fill:none;stroke:#B8BBDB;stroke-miterlimit:10;stroke-dasharray:5.0293,5.0293;}
	.st6{fill:#05D389;}
	.st7{fill:none;stroke:#A8A8A8;stroke-miterlimit:10;}
	.st8{fill-rule:evenodd;clip-rule:evenodd;fill:#D2A28A;}
	.st9{fill-rule:evenodd;clip-rule:evenodd;fill:#AF886A;}
	.st10{fill-rule:evenodd;clip-rule:evenodd;fill:#1C2533;}
	.st11{fill-rule:evenodd;clip-rule:evenodd;fill:#BA9A81;}
	.st12{fill-rule:evenodd;clip-rule:evenodd;fill:#AF896A;}
	.st13{fill:none;stroke:#D0B8A5;stroke-linecap:round;stroke-linejoin:round;stroke-dasharray:4;}
	.st14{fill-rule:evenodd;clip-rule:evenodd;fill:#C69076;}
	.st15{fill:none;stroke:#BD7653;stroke-linecap:round;stroke-linejoin:round;}
	.st16{fill-rule:evenodd;clip-rule:evenodd;fill:#343B48;}
	.st17{fill-rule:evenodd;clip-rule:evenodd;fill:#B6585B;}
	.st18{fill-rule:evenodd;clip-rule:evenodd;fill:#4B44FB;}
	.st19{fill:#F4D86C;}
	.st20{fill:#AA943D;stroke:#F4D86C;stroke-width:2;stroke-miterlimit:10;}
	.st21{fill:#AA943D;}
	.st22{fill-rule:evenodd;clip-rule:evenodd;fill:#5A54FF;}
	.st23{fill-rule:evenodd;clip-rule:evenodd;fill:#402D20;}
	.st24{fill-rule:evenodd;clip-rule:evenodd;fill:#E35B60;}
	.st25{opacity:0.6474;fill-rule:evenodd;clip-rule:evenodd;fill:#CE8F71;enable-background:new    ;}
	.st26{fill-rule:evenodd;clip-rule:evenodd;fill:#F6D1CB;}
	.st27{fill-rule:evenodd;clip-rule:evenodd;fill:#FFEEE6;}
	.st28{fill-rule:evenodd;clip-rule:evenodd;fill:#32C663;}
	.st29{fill-rule:evenodd;clip-rule:evenodd;fill:#55D57A;}
	.st30{fill-rule:evenodd;clip-rule:evenodd;fill:#F5BDB3;}
	.st31{fill-rule:evenodd;clip-rule:evenodd;fill:#33C663;}
	.st32{fill-rule:evenodd;clip-rule:evenodd;fill:#009B3D;}
	.st33{opacity:0.4734;}
	.st34{fill-rule:evenodd;clip-rule:evenodd;fill:#55D67A;}
	.st35{fill:#FFF8F7;}
	.st36{fill:#3C4F6E;}
	.st37{fill:#1C2E75;}
	.st38{fill:#D2A28A;}
	.st39{fill:#DBA990;}
	.st40{fill:#343B48;}
	.st41{opacity:0.1083;fill:#B8482B;enable-background:new    ;}
	.st42{fill:#253C99;}
	.st43{fill:#BD7653;stroke:#D29374;stroke-linecap:round;stroke-linejoin:round;}
	.st44{fill:#534DF7;}
	.st45{fill:#F7F7F7;}
	.st46{fill:#F4E6AD;}
	.st47{fill:#E3E3E3;}
	.st48{fill:#5A54FF;}
	.st49{fill:#463FE8;}
	.st50{fill:#496085;}
	.st51{fill:#625CFF;}
	.st52{fill:none;stroke:#7F7AFF;stroke-miterlimit:10;stroke-dasharray:4;}
	.st53{fill:#EBEDF5;}
</style>
<path class="st0" d="M3677.1,823.1h-797.6c-3.2,0-5.9-2.6-5.9-5.9V152.4c0-3.2,2.6-5.9,5.9-5.9h797.6c3.2,0,5.9,2.6,5.9,5.9v664.8
	C3683,820.5,3680.3,823.1,3677.1,823.1z"/>
<circle class="st1" cx="2904.5" cy="174.8" r="5.9"/>
<circle class="st1" cx="2923.6" cy="174.8" r="5.9"/>
<circle class="st1" cx="2943" cy="174.8" r="5.9"/>
<path class="st2" d="M3649.8,802.8h-747.5c-5.8,0-10.3-4.7-10.3-10.3V207.2c0-5.8,4.7-10.3,10.3-10.3h747.5
	c5.8,0,10.3,4.7,10.3,10.3v585.3C3660.2,798.3,3655.5,802.8,3649.8,802.8z"/>
<g>
	<path class="st3" d="M3131.6,303.7h-8.3l-1.5,4.4h-5l8.1-21.4h5.5l8,21.4h-5.2L3131.6,303.7z M3124.9,299.3h5.2l-2.6-7.4
		L3124.9,299.3z"/>
	<path class="st3" d="M3165.5,308.1l-0.3-2.1c-1,1.4-3,2.7-6,2.7c-6,0-10.9-4.4-10.9-11.2c0-6.7,5.1-11.2,11.2-11.2
		c6.2,0,9,3.6,9.9,6.6l-4.6,1.6c-0.3-1.3-1.7-3.7-5.3-3.7c-2.9,0-6.3,1.9-6.3,6.7c0,4.5,3,6.8,6.4,6.8c3.5,0,5-2.3,5.3-3.5h-6.4
		v-4.1h10.9v11.4L3165.5,308.1L3165.5,308.1z"/>
	<path class="st3" d="M3184,286.2c6,0,11.1,4.4,11.1,11.2c0,6.7-5.1,11.2-11.1,11.2c-6.1,0-11.2-4.4-11.2-11.2
		S3177.9,286.2,3184,286.2z M3184,303.8c3,0,6.2-2,6.2-6.5s-3.2-6.5-6.2-6.5s-6.2,2-6.2,6.5S3181,303.8,3184,303.8z"/>
	<path class="st3" d="M3209,286.2c6,0,11.1,4.4,11.1,11.2c0,6.7-5.1,11.2-11.1,11.2c-6.1,0-11.2-4.4-11.2-11.2
		S3202.9,286.2,3209,286.2z M3209,303.8c3,0,6.2-2,6.2-6.5s-3.2-6.5-6.2-6.5s-6.2,2-6.2,6.5S3205.9,303.8,3209,303.8z"/>
	<path class="st3" d="M3224.1,308.1v-21.4h7.8c6.4,0,10.8,4.2,10.8,10.8s-4.4,10.7-10.8,10.7h-7.8V308.1z M3231.6,303.6
		c3.3,0,6-1.9,6-6.2s-2.7-6.2-6-6.2h-2.8v12.4L3231.6,303.6L3231.6,303.6z"/>
	<path class="st3" d="M3254.7,308.1v-21.4h13.8v4.6h-9.1v4.5h8v4.4h-7.9v8h-4.8V308.1z"/>
	<path class="st3" d="M3282.2,286.2c6,0,11.1,4.4,11.1,11.2c0,6.7-5.1,11.2-11.1,11.2c-6.1,0-11.2-4.4-11.2-11.2
		C3271.1,290.6,3276.2,286.2,3282.2,286.2z M3282.2,303.8c3,0,6.2-2,6.2-6.5s-3.2-6.5-6.2-6.5s-6.2,2-6.2,6.5
		S3279.2,303.8,3282.2,303.8z"/>
	<path class="st3" d="M3303.8,300.1h-1.7v8h-4.8v-21.4h8.5c4.3,0,6.9,2.9,6.9,6.7c0,2.9-1.6,5.1-4.3,6.1l4.4,8.6h-5.2L3303.8,300.1z
		 M3304.9,296c1.9,0,3-1.1,3-2.6c0-1.6-1.1-2.6-3-2.6h-2.8v5.2H3304.9L3304.9,296z"/>
	<path class="st3" d="M3336.6,308.1v-14.2l-5.7,14.2h-3.8l-5.5-14v14h-4.6v-21.4h6.2l5.9,14.5l5.5-14.5h6.5v21.4H3336.6z"/>
	<path class="st3" d="M3364.1,291.2V308h-4.8v-16.8h-6.6v-4.6h18v4.6H3364.1z"/>
	<path class="st3" d="M3374.2,308.1v-21.4h4.8v21.4H3374.2z"/>
	<path class="st3" d="M3393.9,291.2V308h-4.8v-16.8h-6.6v-4.6h18v4.6H3393.9z"/>
	<path class="st3" d="M3404.1,308.1v-21.4h4.8v16.8h9.3v4.6H3404.1L3404.1,308.1z"/>
	<path class="st3" d="M3421.8,308.1v-21.4h13.5v4.5h-8.7v4.1h8v4.2h-8v4.2h8.9v4.6L3421.8,308.1L3421.8,308.1z"/>
</g>
<g>
	<path class="st3" d="M2993,381h-5.1l-1.1,2.9h-2.6l4.8-12.6h2.9l4.8,12.6h-2.7L2993,381z M2988.7,378.8h3.5l-1.7-4.8L2988.7,378.8z
		"/>
	<path class="st3" d="M3004.4,383.8c0.1,1,1,1.6,2,1.6c1.5,0,2.3-0.7,2.3-2.5v-0.6c-0.3,0.5-1.2,1.1-2.5,1.1c-2.3,0-4.1-1.8-4.1-4.3
		c0-2.3,1.7-4.3,4.1-4.3c1.4,0,2.1,0.6,2.5,1.2v-1.1h2.2v7.8c0,2.3-1.3,4.6-4.6,4.6c-2.3,0-3.9-1.5-4.3-3.2L3004.4,383.8z
		 M3008.8,379.3c0-1.4-1-2.2-2-2.2c-1.2,0-2.1,0.9-2.1,2.2c0,1.4,0.9,2.2,2.1,2.2C3007.9,381.5,3008.8,380.6,3008.8,379.3z"/>
	<path class="st3" d="M3022.2,379.5c0,2.7-1.9,4.6-4.6,4.6c-2.6,0-4.6-1.9-4.6-4.6s1.9-4.6,4.6-4.6
		C3020.2,374.9,3022.2,376.9,3022.2,379.5z M3019.9,379.5c0-1.6-1.1-2.5-2.2-2.5s-2.2,0.9-2.2,2.5s1.1,2.5,2.2,2.5
		S3019.9,381.2,3019.9,379.5z"/>
	<path class="st3" d="M3032.8,379.5c0,2.7-1.9,4.6-4.6,4.6c-2.6,0-4.6-1.9-4.6-4.6s1.9-4.6,4.6-4.6
		C3030.7,374.9,3032.8,376.9,3032.8,379.5z M3030.4,379.5c0-1.6-1.1-2.5-2.2-2.5s-2.2,0.9-2.2,2.5s1.1,2.5,2.2,2.5
		S3030.4,381.2,3030.4,379.5z"/>
	<path class="st3" d="M3043.1,382.3c0,0.5,0,1.2,0.1,1.6h-2.2c0-0.2-0.1-0.6-0.1-1c-0.4,0.6-1.3,1.2-2.5,1.2c-2.5,0-4.3-1.9-4.3-4.6
		c0-2.6,1.7-4.6,4.2-4.6c1.5,0,2.2,0.6,2.5,1.1v-5h2.3V382.3L3043.1,382.3z M3038.6,382c1.2,0,2.1-1,2.1-2.5c0-1.6-1-2.5-2.1-2.5
		s-2.1,0.9-2.1,2.5S3037.5,382,3038.6,382z"/>
	<path class="st3" d="M3056.4,387.3V383c-0.4,0.6-1.3,1.1-2.5,1.1c-2.5,0-4.3-1.9-4.3-4.6c0-2.6,1.6-4.6,4.2-4.6
		c1.5,0,2.3,0.7,2.6,1.2v-1h2.2v12.2L3056.4,387.3L3056.4,387.3z M3054.3,382c1.2,0,2.1-1,2.1-2.5s-1-2.5-2.1-2.5
		c-1.2,0-2.1,0.9-2.1,2.5S3053,382,3054.3,382z"/>
	<path class="st3" d="M3067,382.9c-0.4,0.9-1.5,1.2-2.5,1.2c-2.1,0-3.3-1.5-3.3-3.4v-5.5h2.3v5c0,1,0.5,1.7,1.6,1.7s1.6-0.7,1.6-1.7
		V375h2.3v7.1c0,0.6,0.1,1.3,0.1,1.6h-2.2C3067,383.8,3067,383.4,3067,382.9z"/>
	<path class="st3" d="M3079.7,381.4c-0.4,1.5-1.8,2.8-3.9,2.8c-2.3,0-4.5-1.7-4.5-4.7c0-2.8,2-4.6,4.3-4.6c2.7,0,4.3,1.7,4.3,4.5
		c0,0.3,0,0.6,0,0.7h-6.3c0.1,1.2,1.1,2,2.2,2c1.1,0,1.7-0.5,2-1.3L3079.7,381.4z M3077.5,378.6c0-0.9-0.6-1.7-1.9-1.7
		c-1.2,0-1.9,1-1.9,1.7H3077.5z"/>
	<path class="st3" d="M3083.2,381c0.1,0.6,0.5,1.3,1.6,1.3c0.7,0,1.2-0.4,1.2-0.9c0-0.4-0.2-0.7-1-0.9l-1.2-0.2
		c-1.7-0.3-2.5-1.4-2.5-2.6c0-1.6,1.4-2.9,3.3-2.9c2.5,0,3.3,1.6,3.4,2.6l-1.9,0.4c-0.1-0.5-0.4-1.2-1.4-1.2c-0.6,0-1.1,0.3-1.1,0.9
		c0,0.4,0.3,0.6,0.7,0.7l1.3,0.2c1.7,0.3,2.6,1.4,2.6,2.7c0,1.4-1.1,2.9-3.4,2.9c-2.7,0-3.5-1.7-3.6-2.7L3083.2,381z"/>
	<path class="st3" d="M3093.1,375.1h1.7v2.1h-1.7v3.6c0,0.7,0.3,1,1.1,1c0.3,0,0.6,0,0.7-0.1v1.9c-0.2,0.1-0.6,0.2-1.3,0.2
		c-1.7,0-2.8-1-2.8-2.7V377h-1.6v-2h0.4c1,0,1.4-0.6,1.4-1.4v-1.2h2.1L3093.1,375.1L3093.1,375.1z"/>
	<path class="st3" d="M3098.2,370.9c0.9,0,1.5,0.6,1.5,1.5c0,0.7-0.6,1.4-1.5,1.4c-0.7,0-1.5-0.6-1.5-1.4
		C3096.8,371.5,3097.5,370.9,3098.2,370.9z M3097.1,383.9v-8.7h2.3v8.7H3097.1z"/>
	<path class="st3" d="M3110.6,379.5c0,2.7-1.9,4.6-4.6,4.6c-2.6,0-4.6-1.9-4.6-4.6s1.9-4.6,4.6-4.6
		C3108.7,374.9,3110.6,376.9,3110.6,379.5z M3108.3,379.5c0-1.6-1.1-2.5-2.2-2.5s-2.2,0.9-2.2,2.5s1.1,2.5,2.2,2.5
		S3108.3,381.2,3108.3,379.5z"/>
	<path class="st3" d="M3115.1,383.9h-2.3v-8.7h2.2v1.1c0.5-0.9,1.6-1.3,2.6-1.3c2.1,0,3.2,1.5,3.2,3.4v5.5h-2.3v-5.1
		c0-1-0.4-1.7-1.6-1.7c-1.1,0-1.6,0.7-1.6,1.8v5L3115.1,383.9L3115.1,383.9z"/>
	<path class="st3" d="M3127.8,383.9V371h2.3v12.9H3127.8z"/>
	<path class="st3" d="M3134.9,378.9l2.1-0.3c0.5-0.1,0.6-0.3,0.6-0.6c0-0.6-0.4-1.2-1.5-1.2s-1.6,0.6-1.7,1.4l-2.1-0.4
		c0.1-1.4,1.4-2.9,3.7-2.9c2.8,0,3.8,1.6,3.8,3.3v4.3c0,0.4,0,1.1,0.1,1.4h-2.1c-0.1-0.2-0.1-0.7-0.1-1.1c-0.4,0.6-1.3,1.3-2.6,1.3
		c-1.8,0-3-1.3-3-2.7C3132.2,379.9,3133.4,379.1,3134.9,378.9z M3137.7,380.4V380l-1.9,0.3c-0.6,0.1-1.1,0.4-1.1,1.1
		c0,0.5,0.3,1,1.2,1C3136.7,382.4,3137.7,382,3137.7,380.4z"/>
	<path class="st3" d="M3142.5,383.9V371h2.3v5.1c0.4-0.6,1.4-1.2,2.7-1.2c2.6,0,4.1,1.9,4.1,4.6s-1.6,4.6-4.2,4.6
		c-1.2,0-2.1-0.5-2.6-1.3v1.1L3142.5,383.9L3142.5,383.9z M3147,377.1c-1.2,0-2.1,0.9-2.1,2.5s1,2.5,2.1,2.5s2.1-0.9,2.1-2.5
		C3149.2,377.9,3148.2,377.1,3147,377.1z"/>
	<path class="st3" d="M3161.4,381.4c-0.4,1.5-1.8,2.8-3.9,2.8c-2.3,0-4.5-1.7-4.5-4.7c0-2.8,2-4.6,4.3-4.6c2.7,0,4.3,1.7,4.3,4.5
		c0,0.3,0,0.6,0,0.7h-6.3c0,1.2,1.1,2,2.2,2c1.1,0,1.7-0.5,2-1.3L3161.4,381.4z M3159.2,378.6c0-0.9-0.6-1.7-1.9-1.7
		c-1.2,0-1.9,1-1.9,1.7H3159.2z"/>
	<path class="st3" d="M3163.6,383.9V371h2.3v12.9H3163.6z"/>
</g>
<g>
	<path class="st4" d="M3004,433.8l2.2-0.3c0.5-0.1,0.6-0.3,0.6-0.6c0-0.7-0.5-1.3-1.6-1.3s-1.7,0.6-1.8,1.6l-1.9-0.4
		c0.1-1.5,1.5-2.8,3.6-2.8c2.7,0,3.6,1.5,3.6,3.2v4.3c0,0.7,0.1,1.3,0.1,1.4h-1.9c0,0-0.1-0.4-0.1-1.1c-0.4,0.6-1.3,1.4-2.7,1.4
		c-1.8,0-2.9-1.3-2.9-2.6C3001.3,434.9,3002.5,434,3004,433.8z M3006.8,435.1v-0.4l-2.2,0.3c-0.6,0.1-1.2,0.4-1.2,1.2
		c0,0.5,0.4,1.1,1.3,1.1C3005.8,437.3,3006.8,436.8,3006.8,435.1z"/>
	<path class="st4" d="M3017.2,438.7c0.1,1.1,1,1.8,2.1,1.8c1.6,0,2.5-0.9,2.5-2.6V437c-0.3,0.6-1.3,1.3-2.5,1.3
		c-2.3,0-3.9-1.8-3.9-4.2c0-2.3,1.6-4.2,3.9-4.2c1.4,0,2.1,0.5,2.6,1.3v-1.1h2v7.8c0,2.3-1.2,4.5-4.5,4.5c-2.2,0-3.8-1.4-4.2-3.2
		L3017.2,438.7z M3021.9,434.1c0-1.5-1-2.5-2.2-2.5c-1.3,0-2.2,1-2.2,2.5s0.9,2.5,2.2,2.5C3020.9,436.6,3021.9,435.6,3021.9,434.1z"
		/>
	<path class="st4" d="M3031.5,432.1c-0.2,0-0.4,0-0.6,0c-1.6,0-2.3,1-2.3,2.6v4.2h-2v-8.6h2v1.4c0.4-1,1.4-1.5,2.5-1.5
		c0.2,0,0.4,0,0.5,0L3031.5,432.1L3031.5,432.1z"/>
	<path class="st4" d="M3040.9,436.2c-0.4,1.5-1.8,2.8-3.9,2.8c-2.3,0-4.4-1.7-4.4-4.6c0-2.8,2-4.6,4.2-4.6c2.7,0,4.3,1.7,4.3,4.5
		c0,0.3,0,0.6,0,0.6h-6.3c0.1,1.3,1.1,2.2,2.3,2.2s1.9-0.6,2.1-1.5L3040.9,436.2z M3038.8,433.5c0-1-0.7-1.9-2.1-1.9
		c-1.3,0-2,1-2.1,1.9H3038.8z"/>
	<path class="st4" d="M3045.1,433.8l2.2-0.3c0.5-0.1,0.6-0.3,0.6-0.6c0-0.7-0.5-1.3-1.6-1.3s-1.7,0.6-1.8,1.6l-1.9-0.4
		c0.1-1.5,1.5-2.8,3.6-2.8c2.7,0,3.6,1.5,3.6,3.2v4.3c0,0.7,0.1,1.3,0.1,1.4h-1.9c0,0-0.1-0.4-0.1-1.1c-0.4,0.6-1.3,1.4-2.7,1.4
		c-1.8,0-2.9-1.3-2.9-2.6C3042.5,434.9,3043.6,434,3045.1,433.8z M3047.9,435.1v-0.4l-2.2,0.3c-0.6,0.1-1.2,0.4-1.2,1.2
		c0,0.5,0.4,1.1,1.3,1.1C3046.9,437.3,3047.9,436.8,3047.9,435.1z"/>
	<path class="st4" d="M3055.2,430.1h1.8v1.8h-1.8v4.1c0,0.7,0.3,1.1,1.1,1.1c0.3,0,0.6,0,0.7-0.1v1.7c-0.1,0-0.5,0.2-1.3,0.2
		c-1.6,0-2.6-1-2.6-2.6v-4.4h-1.6v-1.8h0.4c1,0,1.3-0.5,1.3-1.4v-1.3h1.8v2.7L3055.2,430.1L3055.2,430.1z"/>
	<path class="st4" d="M3063.6,442.1v-12h2v1.2c0.4-0.7,1.4-1.4,2.8-1.4c2.6,0,3.9,1.9,3.9,4.5s-1.6,4.6-4.1,4.6
		c-1.3,0-2.1-0.5-2.7-1.2v4.4L3063.6,442.1L3063.6,442.1z M3067.9,431.7c-1.4,0-2.3,1.1-2.3,2.7s1,2.7,2.3,2.7s2.3-1.1,2.3-2.7
		C3070.2,432.7,3069.3,431.7,3067.9,431.7z"/>
	<path class="st4" d="M3074.3,438.7v-12.9h2v12.9H3074.3z"/>
	<path class="st4" d="M3081.2,433.8l2.2-0.3c0.5-0.1,0.6-0.3,0.6-0.6c0-0.7-0.5-1.3-1.6-1.3s-1.7,0.6-1.8,1.6l-1.9-0.4
		c0.1-1.5,1.5-2.8,3.6-2.8c2.7,0,3.6,1.5,3.6,3.2v4.3c0,0.7,0.1,1.3,0.1,1.4h-1.9c0,0-0.1-0.4-0.1-1.1c-0.4,0.6-1.3,1.4-2.7,1.4
		c-1.8,0-2.9-1.3-2.9-2.6C3078.6,434.9,3079.8,434,3081.2,433.8z M3084,435.1v-0.4l-2.2,0.3c-0.6,0.1-1.2,0.4-1.2,1.2
		c0,0.5,0.4,1.1,1.3,1.1C3083.1,437.3,3084,436.8,3084,435.1z"/>
	<path class="st4" d="M3090,434.3c0,1.7,1.1,2.7,2.5,2.7s1.9-1,2.1-1.6l1.8,0.6c-0.4,1.4-1.7,2.8-3.9,2.8c-2.6,0-4.5-1.9-4.5-4.6
		s1.9-4.6,4.4-4.6c2.3,0,3.6,1.5,3.9,2.9l-1.8,0.6c-0.2-0.7-0.7-1.6-2.1-1.6C3091.2,431.7,3090,432.6,3090,434.3z"/>
	<path class="st4" d="M3105.9,436.2c-0.4,1.5-1.8,2.8-3.9,2.8c-2.3,0-4.4-1.7-4.4-4.6c0-2.8,2-4.6,4.2-4.6c2.7,0,4.3,1.7,4.3,4.5
		c0,0.3,0,0.6,0,0.6h-6.3c0.1,1.3,1.1,2.2,2.3,2.2s1.9-0.6,2.1-1.5L3105.9,436.2z M3104,433.5c0-1-0.7-1.9-2.1-1.9
		c-1.3,0-2,1-2.1,1.9H3104z"/>
	<path class="st4" d="M3110.2,438.7h-2v-12.9h2v5c0.5-0.7,1.6-1.1,2.5-1.1c2.1,0,3.2,1.5,3.2,3.4v5.4h-2v-5.1c0-1.1-0.4-1.9-1.8-1.9
		c-1.2,0-1.7,0.9-1.8,1.9L3110.2,438.7L3110.2,438.7z"/>
	<path class="st4" d="M3126.6,434.3c0,2.7-1.9,4.6-4.5,4.6s-4.5-1.9-4.5-4.6s1.9-4.6,4.5-4.6
		C3124.8,429.8,3126.6,431.8,3126.6,434.3z M3124.6,434.3c0-1.8-1.2-2.7-2.5-2.7s-2.5,1-2.5,2.7c0,1.8,1.2,2.8,2.5,2.8
		C3123.4,437.1,3124.6,436.1,3124.6,434.3z"/>
	<path class="st4" d="M3128.7,438.7v-12.9h2v12.9H3128.7z"/>
	<path class="st4" d="M3141.5,437.1c0,0.7,0.1,1.4,0.1,1.6h-1.9c0-0.2-0.1-0.7-0.1-1.1c-0.4,0.7-1.3,1.3-2.6,1.3
		c-2.5,0-4.2-1.9-4.2-4.6c0-2.5,1.7-4.5,4.2-4.5c1.5,0,2.2,0.6,2.6,1.3v-5.2h2v11.2L3141.5,437.1L3141.5,437.1z M3137.3,437.1
		c1.4,0,2.2-1.1,2.2-2.8s-1-2.7-2.2-2.7s-2.3,1.1-2.3,2.7S3135.9,437.1,3137.3,437.1z"/>
	<path class="st4" d="M3152,436.2c-0.4,1.5-1.8,2.8-3.9,2.8c-2.3,0-4.4-1.7-4.4-4.6c0-2.8,2-4.6,4.2-4.6c2.7,0,4.3,1.7,4.3,4.5
		c0,0.3,0,0.6,0,0.6h-6.3c0.1,1.3,1.1,2.2,2.3,2.2c1.3,0,1.9-0.6,2.1-1.5L3152,436.2z M3149.9,433.5c0-1-0.7-1.9-2.1-1.9
		c-1.3,0-2,1-2.1,1.9H3149.9z"/>
	<path class="st4" d="M3159.1,432.1c-0.2,0-0.4,0-0.6,0c-1.6,0-2.3,1-2.3,2.6v4.2h-2v-8.6h2v1.4c0.4-1,1.4-1.5,2.5-1.5
		c0.2,0,0.4,0,0.5,0L3159.1,432.1L3159.1,432.1z"/>
</g>
<g>
	<path class="st3" d="M2993,506.2h-5.1l-1.1,2.9h-2.6l4.8-12.6h2.9l4.8,12.6h-2.7L2993,506.2z M2988.7,504h3.5l-1.7-4.8L2988.7,504z
		"/>
	<path class="st3" d="M3000.7,509.1h-2.3v-8.7h2.2v1.1c0.5-0.9,1.6-1.3,2.6-1.3c2.1,0,3.2,1.5,3.2,3.4v5.5h-2.3V504
		c0-1-0.4-1.7-1.6-1.7c-1.1,0-1.6,0.7-1.6,1.8v5L3000.7,509.1L3000.7,509.1z"/>
	<path class="st3" d="M3017.4,504.7c0,2.7-1.9,4.6-4.6,4.6c-2.6,0-4.6-1.9-4.6-4.6s1.9-4.6,4.6-4.6
		C3015.4,500.1,3017.4,502,3017.4,504.7z M3015,504.7c0-1.6-1.1-2.5-2.2-2.5c-1.2,0-2.2,0.9-2.2,2.5s1.1,2.5,2.2,2.5
		S3015,506.4,3015,504.7z"/>
	<path class="st3" d="M3022.3,500.3h1.7v2.1h-1.7v3.6c0,0.7,0.3,1,1.1,1c0.3,0,0.6,0,0.7-0.1v1.9c-0.2,0.1-0.6,0.2-1.3,0.2
		c-1.7,0-2.8-1-2.8-2.7v-4.1h-1.6v-2.1h0.4c1,0,1.4-0.6,1.4-1.4v-1.2h2.1v2.7h0V500.3z"/>
	<path class="st3" d="M3028.2,509.1h-2.3v-12.9h2.3v4.8c0.5-0.6,1.5-1,2.3-1c2.2,0,3.2,1.5,3.2,3.4v5.5h-2.3v-5.1
		c0-1-0.4-1.7-1.6-1.7c-1,0-1.6,0.7-1.6,1.7L3028.2,509.1L3028.2,509.1z"/>
	<path class="st3" d="M3044.2,506.6c-0.4,1.5-1.8,2.8-3.9,2.8c-2.3,0-4.5-1.7-4.5-4.7c0-2.8,2-4.6,4.3-4.6c2.7,0,4.3,1.7,4.3,4.5
		c0,0.3,0,0.6,0,0.7h-6.3c0.1,1.2,1.1,2,2.2,2c1.1,0,1.7-0.5,2-1.3L3044.2,506.6z M3041.9,503.7c0-0.9-0.6-1.7-1.9-1.7
		c-1.2,0-1.9,1-1.9,1.7H3041.9z"/>
	<path class="st3" d="M3051.6,502.7c-0.2,0-0.5-0.1-0.7-0.1c-1.2,0-2.2,0.5-2.2,2.5v3.9h-2.3v-8.7h2.2v1.3c0.5-1.2,1.7-1.4,2.5-1.4
		c0.2,0,0.3,0,0.5,0V502.7L3051.6,502.7L3051.6,502.7z"/>
	<path class="st3" d="M3059.5,509c0.1,1,1,1.6,2,1.6c1.5,0,2.3-0.7,2.3-2.5v-0.6c-0.3,0.5-1.2,1.1-2.5,1.1c-2.3,0-4.1-1.8-4.1-4.3
		c0-2.3,1.7-4.3,4.1-4.3c1.4,0,2.1,0.6,2.5,1.2v-1.1h2.2v7.8c0,2.3-1.3,4.6-4.6,4.6c-2.3,0-3.9-1.5-4.3-3.2L3059.5,509z
		 M3063.9,504.5c0-1.4-1-2.2-2-2.2c-1.2,0-2.1,0.9-2.1,2.2s0.9,2.2,2.1,2.2C3063,506.7,3063.9,505.8,3063.9,504.5z"/>
	<path class="st3" d="M3074.1,502.7c-0.2,0-0.5-0.1-0.7-0.1c-1.2,0-2.2,0.5-2.2,2.5v3.9h-2.3v-8.7h2.2v1.3c0.5-1.2,1.7-1.4,2.5-1.4
		c0.2,0,0.3,0,0.5,0V502.7L3074.1,502.7L3074.1,502.7z"/>
	<path class="st3" d="M3083.6,506.6c-0.4,1.5-1.8,2.8-3.9,2.8c-2.3,0-4.5-1.7-4.5-4.7c0-2.8,2-4.6,4.3-4.6c2.7,0,4.3,1.7,4.3,4.5
		c0,0.3,0,0.6,0,0.7h-6.3c0.1,1.2,1.1,2,2.2,2c1.1,0,1.7-0.5,2-1.3L3083.6,506.6z M3081.5,503.7c0-0.9-0.6-1.7-1.9-1.7
		c-1.2,0-1.9,1-1.9,1.7H3081.5z"/>
	<path class="st3" d="M3087.9,504.1l2.1-0.3c0.5-0.1,0.6-0.3,0.6-0.6c0-0.6-0.4-1.2-1.5-1.2s-1.6,0.6-1.7,1.4l-2.1-0.4
		c0.1-1.4,1.4-2.9,3.7-2.9c2.8,0,3.8,1.6,3.8,3.3v4.3c0,0.4,0,1.1,0.1,1.4h-2.1c-0.1-0.2-0.1-0.7-0.1-1.1c-0.4,0.6-1.3,1.3-2.6,1.3
		c-1.8,0-3-1.3-3-2.7C3085.3,505.1,3086.5,504.3,3087.9,504.1z M3090.7,505.6v-0.4l-1.9,0.3c-0.6,0.1-1.1,0.4-1.1,1.1
		c0,0.5,0.3,1,1.2,1C3089.8,507.6,3090.7,507.2,3090.7,505.6z"/>
	<path class="st3" d="M3098.4,500.3h1.7v2.1h-1.7v3.6c0,0.7,0.3,1,1.1,1c0.3,0,0.6,0,0.7-0.1v1.9c-0.2,0.1-0.6,0.2-1.3,0.2
		c-1.7,0-2.8-1-2.8-2.7v-4.1h-1.6v-2.1h0.4c1,0,1.4-0.6,1.4-1.4v-1.2h2.1v2.7h0V500.3z"/>
	<path class="st3" d="M3115.4,504.7c0,2.7-1.9,4.6-4.6,4.6c-2.6,0-4.6-1.9-4.6-4.6s1.9-4.6,4.6-4.6
		C3113.4,500.1,3115.4,502,3115.4,504.7z M3113.1,504.7c0-1.6-1.1-2.5-2.2-2.5s-2.2,0.9-2.2,2.5s1.1,2.5,2.2,2.5
		S3113.1,506.4,3113.1,504.7z"/>
	<path class="st3" d="M3119.8,509.1h-2.3v-8.7h2.2v1.1c0.5-0.9,1.6-1.3,2.6-1.3c2.1,0,3.2,1.5,3.2,3.4v5.5h-2.3V504
		c0-1-0.4-1.7-1.6-1.7c-1.1,0-1.6,0.7-1.6,1.8v5L3119.8,509.1L3119.8,509.1z"/>
	<path class="st3" d="M3135.8,506.6c-0.4,1.5-1.8,2.8-3.9,2.8c-2.3,0-4.5-1.7-4.5-4.7c0-2.8,2-4.6,4.3-4.6c2.7,0,4.3,1.7,4.3,4.5
		c0,0.3,0,0.6,0,0.7h-6.3c0.1,1.2,1.1,2,2.2,2c1.1,0,1.7-0.5,2-1.3L3135.8,506.6z M3133.6,503.7c0-0.9-0.6-1.7-1.9-1.7
		c-1.2,0-1.9,1-1.9,1.7H3133.6z"/>
</g>
<g>
	<path class="st5" d="M3401.4,752.3h-252.8c-18.3,0-33.4-15-33.4-33.4v-12.6c0-18.3,15-33.4,33.4-33.4h252.8
		c18.3,0,33.4,15,33.4,33.4v12.6C3434.7,737.3,3419.7,752.3,3401.4,752.3z"/>
</g>
<circle class="st6" cx="3156.5" cy="712.4" r="20.4"/>
<g>
	<path class="st2" d="M3156.9,723.9h-0.6c-1,0-1.8-0.7-1.8-1.8v-19.9c0-1,0.7-1.8,1.8-1.8h0.6c1,0,1.8,0.7,1.8,1.8v19.9
		C3158.6,723.1,3157.8,723.9,3156.9,723.9z"/>
	<path class="st2" d="M3168.2,711.9v0.6c0,1-0.7,1.8-1.8,1.8h-19.9c-1,0-1.8-0.7-1.8-1.8v-0.6c0-1,0.7-1.8,1.8-1.8h19.9
		C3167.4,710.1,3168.2,710.9,3168.2,711.9z"/>
</g>
<g>
	<path class="st6" d="M3199.3,717.6h-6.2l-1.3,3.5h-3.1l5.9-15.2h3.4l5.9,15.2h-3.2L3199.3,717.6z M3194.1,714.9h4.3l-2.1-5.8
		L3194.1,714.9z"/>
	<path class="st6" d="M3215.4,719.2c0,0.7,0,1.5,0.1,1.9h-2.8c0-0.2-0.1-0.7-0.1-1.3c-0.4,0.9-1.6,1.5-3,1.5c-3,0-5.1-2.3-5.1-5.5
		c0-3.1,2.1-5.5,5.1-5.5c1.8,0,2.7,0.7,3,1.3v-6.1h2.8V719.2z M3210,718.8c1.5,0,2.6-1.2,2.6-3c0-1.9-1.2-3-2.6-3
		c-1.5,0-2.7,1.1-2.7,3S3208.5,718.8,3210,718.8z"/>
	<path class="st6" d="M3228.5,719.2c0,0.7,0,1.5,0.1,1.9h-2.8c0-0.2-0.1-0.7-0.1-1.3c-0.4,0.9-1.6,1.5-3,1.5c-3,0-5.1-2.3-5.1-5.5
		c0-3.1,2.1-5.5,5.1-5.5c1.8,0,2.7,0.7,3,1.3v-6.1h2.8V719.2z M3223.1,718.8c1.5,0,2.6-1.2,2.6-3c0-1.9-1.2-3-2.6-3
		c-1.5,0-2.7,1.1-2.7,3S3221.6,718.8,3223.1,718.8z"/>
	<path class="st6" d="M3239.5,721.2h-2.9v-10.6h2.8v1.3c0.6-1.1,1.9-1.6,3.1-1.6c2.7,0,3.8,1.9,3.8,4.2v6.7h-2.9V715
		c0-1.2-0.5-2.1-1.9-2.1c-1.3,0-2,1-2,2.2L3239.5,721.2L3239.5,721.2z"/>
	<path class="st6" d="M3258.7,718.1c-0.5,1.8-2.2,3.4-4.8,3.4c-2.9,0-5.4-2.1-5.4-5.7c0-3.4,2.5-5.5,5.2-5.5c3.3,0,5.2,2.1,5.2,5.5
		c0,0.4,0,0.9,0,0.9h-7.6c0.1,1.4,1.3,2.5,2.7,2.5s2-0.6,2.5-1.6L3258.7,718.1z M3256,714.7c0-1.1-0.7-2.1-2.3-2.1
		c-1.5,0-2.3,1.2-2.3,2.1H3256z"/>
	<path class="st6" d="M3269.8,710.5l2.2,6.8l1.9-6.8h2.9l-3.3,10.6h-2.9l-2.5-7.3l-2.5,7.3h-2.9l-3.4-10.6h3l1.9,6.8l2.3-6.8H3269.8
		z"/>
	<path class="st6" d="M3291.1,725.2v-5.1c-0.5,0.7-1.6,1.3-3,1.3c-3,0-5.1-2.3-5.1-5.5c0-3.1,2-5.5,5.1-5.5c1.8,0,2.8,0.9,3.1,1.5
		v-1.3h2.8v14.7h-2.9V725.2z M3288.6,718.8c1.5,0,2.7-1.2,2.7-3s-1.2-3-2.7-3s-2.7,1.1-2.7,3S3287.1,718.8,3288.6,718.8z"/>
	<path class="st6" d="M3303.7,720c-0.5,1-1.8,1.4-2.9,1.4c-2.6,0-4.1-1.9-4.1-4.2v-6.7h2.9v6.1c0,1.2,0.6,2.1,1.9,2.1s2-0.9,2-2.1
		v-6.2h2.9v8.6c0,0.9,0.1,1.6,0.1,1.9h-2.8C3303.7,721,3303.7,720.4,3303.7,720z"/>
	<path class="st6" d="M3318.7,718.1c-0.5,1.8-2.2,3.4-4.8,3.4c-2.9,0-5.4-2.1-5.4-5.7c0-3.4,2.5-5.5,5.2-5.5c3.3,0,5.2,2.1,5.2,5.5
		c0,0.4,0,0.9,0,0.9h-7.6c0.1,1.4,1.3,2.5,2.7,2.5s2-0.6,2.5-1.6L3318.7,718.1z M3316.1,714.7c0-1.1-0.7-2.1-2.3-2.1
		c-1.5,0-2.3,1.2-2.3,2.1H3316.1z"/>
	<path class="st6" d="M3322.7,717.6c0.1,0.9,0.6,1.6,1.9,1.6c1,0,1.4-0.5,1.4-1.1c0-0.4-0.3-0.9-1.2-1.1l-1.4-0.3
		c-2-0.4-3-1.7-3-3.2c0-1.9,1.7-3.5,3.9-3.5c3,0,4.1,1.9,4.2,3.1l-2.3,0.5c-0.1-0.6-0.5-1.4-1.7-1.4c-0.7,0-1.4,0.4-1.4,1.1
		c0,0.5,0.4,0.9,1,1l1.5,0.3c2.1,0.4,3.1,1.7,3.1,3.3c0,1.7-1.4,3.5-4.2,3.5c-3.2,0-4.3-2-4.4-3.3L3322.7,717.6z"/>
	<path class="st6" d="M3334.4,710.5h2.1v2.6h-2.1v4.5c0,1,0.4,1.3,1.3,1.3c0.3,0,0.7,0,0.9-0.1v2.3c-0.2,0.1-0.7,0.2-1.6,0.2
		c-2,0-3.4-1.3-3.4-3.3v-4.9h-1.9v-2.6h0.5c1.2,0,1.6-0.7,1.6-1.7v-1.5h2.6L3334.4,710.5L3334.4,710.5z"/>
	<path class="st6" d="M3340.4,705.3c1,0,1.8,0.7,1.8,1.8c0,1-0.7,1.7-1.8,1.7c-1,0-1.8-0.7-1.8-1.7
		C3338.6,706,3339.3,705.3,3340.4,705.3z M3338.9,721.2v-10.6h2.9v10.6H3338.9z"/>
	<path class="st6" d="M3355.1,715.8c0,3.3-2.3,5.7-5.5,5.7s-5.5-2.3-5.5-5.7s2.3-5.7,5.5-5.7S3355.1,712.5,3355.1,715.8z
		 M3352.2,715.8c0-2-1.3-3-2.7-3s-2.7,1-2.7,3s1.3,3,2.7,3S3352.2,717.9,3352.2,715.8z"/>
	<path class="st6" d="M3360.1,721.2h-2.9v-10.6h2.8v1.3c0.6-1.1,1.9-1.6,3.1-1.6c2.7,0,3.8,1.9,3.8,4.2v6.7h-2.9V715
		c0-1.2-0.5-2.1-1.9-2.1c-1.3,0-2,1-2,2.2L3360.1,721.2L3360.1,721.2z"/>
</g>
<path class="st7" d="M3555.7,458.1h-566.9c-2.9,0-5.3-2.3-5.3-5.3v-42.2c0-2.9,2.3-5.3,5.3-5.3h566.9c2.9,0,5.3,2.3,5.3,5.3v42.2
	C3561,455.8,3558.6,458.1,3555.7,458.1z"/>
<path class="st7" d="M3555.7,631.9h-566.9c-2.9,0-5.3-2.3-5.3-5.3v-94.2c0-2.9,2.3-5.3,5.3-5.3h566.9c2.9,0,5.3,2.3,5.3,5.3v94.2
	C3561,629.5,3558.6,631.9,3555.7,631.9z"/>
<g id="Page-1">
	<g id="version-2-copy-3" transform="translate(-552.000000, -1221.000000)">
		<g id="Group-95" transform="translate(552.000000, 1221.000000)">
			<path id="Path-187" class="st8" d="M3549.5,687.5c-10.3-9.1-16.5-14-18.4-14.8c-3-1.3-13.9-8.9-17.8-8.9s-4.8,3.1-2.5,4.6
				c2.5,1.5,11.9,7.3,11.9,7.3s-1.6,2.1-1.6,4.2c0,2-2.8,0-4.2,4.2s-1.4,2-2.2,5c-0.9,3,12.8,8.3,16.3,7.9c2.3-0.2,5.8,2.2,10.3,7.5
				L3549.5,687.5z"/>
			<g id="Group-62-Copy" transform="translate(17.000000, 0.000000)">
				<path id="Path-166" class="st9" d="M3716.1,844c-21.2,14-45.5,23.9-73.1,29.8c35.6,3.5,60.8,7.4,75.4,11.6l-2.2,11.1l-140.9-3.7
					l11.4-32.8L3716.1,844z"/>
				<path id="Path-157" class="st10" d="M3726.4,899.3c2.6-6.9,4.6-11,6.1-12.3c2.2-1.9,52.7,17.9,52.7,20.8c0,2.9-1.8,6.1-5.8,6.1
					c-2.6,0-19.5,0-50.7,0L3726.4,899.3z"/>
				<path id="Path-156" class="st8" d="M3715.2,898.1h13.3c4.2,2.8,9,4.2,14.4,4.2s5.4,3.4,0,10.1h-27.7V898.1z"/>
				<g id="Path-167" transform="translate(4.000000, 143.000000)">
					<g id="Mask">
						<path class="st11" d="M3637.4,645.8c-50.4,29.9-85.5,57.2-105.1,81.9c-14.3,16.7-15.1,29.3-2.3,37.6c10,6.5,73.5,8.2,190.3,5
							v-20.9c-9.9-7-55.2-11-136-11.8c76-4.9,119.5-16.7,130.8-35.6c11.2-18.9,10.3-40.4-2.6-64.6L3637.4,645.8z"/>
					</g>
					<path class="st12" d="M3701.7,678.6c7.3,0,14-3.1,20.4-9.3c-1,18.6-4.2,28-9.5,28.4C3707.1,698,3703.5,691.7,3701.7,678.6z"/>
				</g>
				<path class="st12" d="M3668.9,827.8c8.1,1.8,16.1,0.1,23.9-5.2c-1,19.7-4.6,29.8-10.9,30.2S3671.2,844.9,3668.9,827.8z"/>
				<path id="Path-122" class="st13" d="M3650.6,832.9c-51.3,24-80,38.1-85.9,42.3c-9.1,6.4-9.1,14.3,0,14.3s93.6-4.7,149,5.3"/>
				<g id="Group-60" transform="translate(0.000000, 9.000000)">
					<g id="Group-45" transform="translate(55.867403, 0.000000)">
						<g id="Path-160">
							<g>
								<path class="st8" d="M3553.7,572.6c-0.4,6-1.3,12.6-2.3,19.6c-1.6,10.7,3.9,26.1,13.5,31.7c5.2,3,12,2.2,20.7-2.5
									c1.3-0.7,4.2,3.9,8.5,14c27.2,2.2,37.7,0,32-6.8c-5.9-6.8-12.3-19-19.1-36.5l-12.9-35.4l-40.4,9V572.6z"/>
							</g>
							<path class="st14" d="M3585.6,621.6c6.3-5,10.1-9.8,11.8-14.3c2.5-6.7-4.6,15.6-9.7,18.6
								C3584.2,627.9,3583.5,626.5,3585.6,621.6z"/>
						</g>
						<path id="Path-110" class="st15" d="M3560,584.7l-3.1,14.7c1.5,1.8,3.9,2.7,7.4,2.7"/>
						<ellipse id="Oval-12" class="st16" cx="3568.5" cy="587.6" rx="1.6" ry="2.9"/>
						<ellipse id="Oval-12-Copy" class="st16" cx="3555.4" cy="586.2" rx="1.6" ry="2.9"/>
						<path id="Path-118" class="st17" d="M3557.2,608.3c3.8,1.8,7.8,1.8,11.8,0c-1.3,5.7-3.6,8.1-6.8,7.4
							C3559.2,614.9,3557.6,610.5,3557.2,608.3C3556.8,606.2,3556.8,606.2,3557.2,608.3z"/>
					</g>
					<g id="Group-59" transform="translate(0.839779, 41.454545)">
						<path id="Path-164" class="st18" d="M3704.6,604.2c18.3,18.3,29.4,29.6,33.1,33.8c5.5,6.4,4.8,48.5-17.2,74.4
							c-14.6,17.3-21.1,10.7-19.6-19.7L3704.6,604.2z"/>
						<g id="Path-155">
							<g>
								<g>
									<path class="st19" d="M3821.5,656.9l-199.2,62.5c-1.1,0.3-2.3-0.3-2.7-1.4l-17.4-55.4c-0.3-1.1,0.3-2.3,1.4-2.7l199.2-62.5
										c1.1-0.3,2.3,0.3,2.7,1.4l17.4,55.4C3823.3,655.3,3822.7,656.5,3821.5,656.9z"/>
									<g>
										<path class="st20" d="M3766.5,636.9c0.4,0.1,1.7,0.5,3.7,1.2c2.1,0.6,3.7,1.2,4.8,1.5c0.1,0,0.4,0.1,0.7,0.2
											c0.4,0.1,0.7,0.2,1,0.3c0.2,0.1,0.5,0.1,1,0.2c0.3,0.1,0.7,0.1,1,0.1s0.5,0,0.7-0.1l0,0c0.2-0.1,0.4-0.2,0.7-0.3
											c0.2-0.2,0.5-0.4,0.7-0.6c0.2-0.3,0.4-0.5,0.6-0.7s0.4-0.5,0.6-0.9s0.4-0.5,0.5-0.6c0.7-1,2.6-3.3,5.5-7.1
											c0.5-0.7,1-1.6,1.3-2.5c0.2-0.9,0.3-1.7,0-2.6c-0.2-0.6-0.6-1.2-1.3-1.5c-0.6-0.3-1.3-0.4-1.9-0.2l-22.2,6.9
											c-0.7,0.2-1.3,0.6-1.5,1.4c-0.2,0.6-0.2,1.4,0,2.1c0.2,0.6,0.6,1.3,1.5,1.8C3764.9,636.2,3765.8,636.6,3766.5,636.9
											L3766.5,636.9z"/>
										<path class="st21" d="M3789.9,631.3c-2.6,3.3-4.6,5.8-5.9,7.6c-0.4,0.6-0.9,1.1-1.1,1.4c-0.3,0.3-0.6,0.7-1.2,1.2
											s-1.1,0.7-1.5,0.9l0,0c-0.5,0.2-1.1,0.2-1.8,0.1c-0.6-0.1-1.2-0.1-1.6-0.3c-0.4-0.1-1-0.3-1.7-0.5
											c-1.7-0.5-4.7-1.5-9.2-2.9c-0.6-0.2-1.4-0.5-1.9-0.9l3.7,11.9c0.2,0.6,0.6,1.2,1.3,1.5c0.6,0.3,1.3,0.4,1.9,0.2l22.2-6.9
											c0.6-0.2,1.2-0.6,1.5-1.3c0.3-0.6,0.4-1.3,0.2-1.9l-3.7-11.9C3790.7,630.1,3790.4,630.8,3789.9,631.3L3789.9,631.3z"/>
									</g>
									<g>
										<path class="st21" d="M3666.9,681.3l-5-15.9l9.9-3.1l1,2.9l-6.8,2.1l1.2,3.6l6.2-1.9l0.9,2.8l-6.2,1.9l1.2,3.6l6.8-2.1
											l1,2.9L3666.9,681.3z"/>
										<path class="st21" d="M3695.9,672.2l-3.5-11.1l-1.1,12.6l-2.6,0.9l-8-9.6l3.4,11.1l-3,1l-5-15.9l4.1-1.3l8.3,9.9l1.1-12.9
											l4.2-1.3l5,15.9L3695.9,672.2z"/>
										<path class="st21" d="M3712.2,663.1l-6.4,2l-0.2,4.1l-3.3,1.1l1.1-17.8l3.6-1.2l11,14l-3.3,1.1L3712.2,663.1z M3705.9,662
											l4.4-1.4l-4.1-5.3L3705.9,662z"/>
										<path class="st21" d="M3721.4,664.3l-5-15.9l3.1-1l5,15.9L3721.4,664.3z"/>
										<path class="st21" d="M3729.5,661.7l-5-15.9l3.1-1l4.1,12.9l7-2.2l1,3L3729.5,661.7z"/>
									</g>
								</g>
								<path class="st22" d="M3717,737.8c8.3-65.8-1.2-115.3-28.5-148.5c-9.7-11.8-17.2-6.1-29-4.5c-11.2,1.5-24.1-3.3-38.1,14.4
									c-24.8,31.7-39.8,56.5-47.2,64.4c-7.6,7.8-34.3-22.2-40.1-30.2l-15,22.4c23.4,25.4,38.1,39.9,43.9,43.3
									c9,5.1,24.3,10.2,58.5-39c-1.1,7.1-1.1,12.6,0,16.4c2,7.1,10.1,13.1,14.2,22.6c3.9,9.4,4.6,27,3.9,38.7
									c-0.7,13.8,11.4,18,32.3,18S3710.2,755.9,3717,737.8z"/>
							</g>
						</g>
					</g>
				</g>
				<path id="Path-158" class="st23" d="M3607.1,581.2c2.1,3.2,13.6,5.7,34.7,7.5c1.9,3,2.7,6.1,2.2,9.1c-0.5,4.6,7.9-11.3,10.1-4.5
					c2.2,6.9-6.2,14.8-6.2,14.8s-20.9,36.9,1.9,74.5c22.8,37.6,65.3,11.5,65.3,5.1s-35.8-124.7-51.5-128.8
					c-15.7-4.2-7.4-10.8-32.3-5.2C3614.7,557.4,3606.7,566.6,3607.1,581.2z"/>
				<path id="Path-163" class="st24" d="M3650.6,592.4c2.1-21.5,1.2-35.1-2.8-40.5c11.6,0.9,17.9,3.6,18.8,8.1
					c1.4,6.7,3.2,25.1-13.2,41.1c1.2-4.1,1.3-6.9,0.2-8.5C3653.3,591.6,3652.2,591.6,3650.6,592.4z"/>
				<ellipse class="st25" cx="3631.8" cy="607.2" rx="8.7" ry="4.8"/>
			</g>
		</g>
	</g>
</g>
<g>
	<g id="Page-1_5_">
		<g id="version-2-copy-3_5_" transform="translate(-82.000000, -1307.000000)">
			<g id="Group-44-Copy_1_" transform="translate(82.000000, 1307.000000)">
				<path id="Rectangle-13-Copy-3_1_" class="st26" d="M3985.6,693.6h136.2c2.6,0,4.7,2.1,4.7,4.7V908c0,2.6-2.1,4.7-4.7,4.7h-136.2
					c-2.6,0-4.7-2.1-4.7-4.7V698.3C3980.9,695.7,3983,693.6,3985.6,693.6z"/>
				<path id="Rectangle-13-Copy-2_1_" class="st27" d="M3996.6,712.3h112.7c2.6,0,4.7,2.1,4.7,4.7v36c0,2.6-2.1,4.7-4.7,4.7h-112.7
					c-2.6,0-4.7-2.1-4.7-4.7v-36C3991.9,714.4,3994,712.3,3996.6,712.3z"/>
				<path class="st26" d="M4045.1,723.3h17.2c2.6,0,4.7,2.1,4.7,4.7l0,0c0,2.6-2.1,4.7-4.7,4.7h-17.2c-2.6,0-4.7-2.1-4.7-4.7l0,0
					C4040.4,725.4,4042.5,723.3,4045.1,723.3z"/>
				<path class="st27" d="M3996.6,770.3h112.7c2.6,0,4.7,2.1,4.7,4.7v36c0,2.6-2.1,4.7-4.7,4.7h-112.7c-2.6,0-4.7-2.1-4.7-4.7v-36
					C3991.9,772.4,3994,770.3,3996.6,770.3z"/>
				<path class="st26" d="M4045.1,781.2h17.2c2.6,0,4.7,2.1,4.7,4.7l0,0c0,2.6-2.1,4.7-4.7,4.7h-17.2c-2.6,0-4.7-2.1-4.7-4.7l0,0
					C4040.4,783.3,4042.5,781.2,4045.1,781.2z"/>
				<path class="st27" d="M3996.6,828.2h112.7c2.6,0,4.7,2.1,4.7,4.7v36c0,2.6-2.1,4.7-4.7,4.7h-112.7c-2.6,0-4.7-2.1-4.7-4.7v-36
					C3991.9,830.3,3994,828.2,3996.6,828.2z"/>
				<path class="st26" d="M4045.1,839.2h17.2c2.6,0,4.7,2.1,4.7,4.7l0,0c0,2.6-2.1,4.7-4.7,4.7h-17.2c-2.6,0-4.7-2.1-4.7-4.7l0,0
					C4040.4,841.3,4042.5,839.2,4045.1,839.2z"/>
			</g>
		</g>
	</g>
	<g id="Page-1_4_">
		<g id="version-2-copy-3_4_" transform="translate(-97.000000, -1257.000000)">
			<g id="Group-43-Copy_1_" transform="translate(97.000000, 1257.000000)">
				<g id="Group-40_1_" transform="translate(0.000000, 2.000000)">
					<path id="Rectangle-2_1_" class="st28" d="M4055.5,627.7L4055.5,627.7c6.5,0,11.8,5.3,11.8,11.8V655c0,4.5-3.7,8.2-8.2,8.2
						h-7.3c-4.5,0-8.2-3.7-8.2-8.2v-15.5C4043.7,633,4049,627.7,4055.5,627.7z"/>
					<path class="st29" d="M4070.9,635.9L4070.9,635.9c5,0,9.1,4.1,9.1,9.1v10c0,4.5-3.7,8.2-8.2,8.2h-1.8c-4.5,0-8.2-3.7-8.2-8.2
						v-10C4061.8,640,4065.9,635.9,4070.9,635.9z"/>
					<g id="Group-16_1_" transform="translate(2.666667, 20.666667)">
						<path id="Path-58_3_" class="st26" d="M4041,635.3l4.9,36.4c9.1,0,18.5,0,28,0l4.4-36.4H4041z"/>
					</g>
					<path id="Rectangle-10_1_" class="st30" d="M4042.8,655.9h38.2c1.5,0,2.7,1.2,2.7,2.7v0.9c0,1.5-1.2,2.7-2.7,2.7h-38.2
						c-1.5,0-2.7-1.2-2.7-2.7v-0.9C4040,657.2,4041.2,655.9,4042.8,655.9z"/>
				</g>
				<g id="Group-41_1_" transform="translate(1.000000, 0.000000)">
					<path id="Rectangle-6_1_" class="st31" d="M4045.9,630.2L4045.9,630.2c0.2-0.2,0.5-0.1,0.6,0.1l2.2,2.9
						c0.2,0.2,0.1,0.5-0.1,0.6l0,0c-0.2,0.2-0.5,0.1-0.6-0.1l-2.2-2.9C4045.7,630.6,4045.7,630.4,4045.9,630.2z"/>
					<path class="st31" d="M4054.7,627L4054.7,627c0.3,0,0.5,0.2,0.5,0.5v3.6c0,0.3-0.2,0.5-0.5,0.5l0,0c-0.3,0-0.5-0.2-0.5-0.5
						v-3.6C4054.2,627.2,4054.5,627,4054.7,627z"/>
					<path class="st31" d="M4045,643.8L4045,643.8c0,0.3-0.2,0.5-0.5,0.5h-3.6c-0.3,0-0.5-0.2-0.5-0.5l0,0c0-0.3,0.2-0.5,0.5-0.5
						h3.6C4044.8,643.4,4045,643.6,4045,643.8z"/>
					<path class="st31" d="M4045,650.2L4045,650.2c0,0.3-0.2,0.5-0.5,0.5h-3.6c-0.3,0-0.5-0.2-0.5-0.5l0,0c0-0.3,0.2-0.5,0.5-0.5
						h3.6C4044.8,649.7,4045,649.9,4045,650.2z"/>
					<path class="st31" d="M4045,656.6L4045,656.6c0,0.3-0.2,0.5-0.5,0.5h-3.6c-0.3,0-0.5-0.2-0.5-0.5l0,0c0-0.3,0.2-0.5,0.5-0.5
						h3.6C4044.8,656.1,4045,656.3,4045,656.6z"/>
					<path class="st31" d="M4064.2,630L4064.2,630c0.2,0.1,0.3,0.4,0.2,0.6l-1.8,3.1c-0.1,0.2-0.4,0.3-0.6,0.2l0,0
						c-0.2-0.1-0.3-0.4-0.2-0.6l1.8-3.1C4063.7,630,4063.9,629.9,4064.2,630z"/>
					<path class="st31" d="M4041.6,636.4L4041.6,636.4c0.1-0.2,0.4-0.3,0.6-0.2l3.2,1.8c0.2,0.1,0.3,0.4,0.2,0.6l0,0
						c-0.1,0.2-0.4,0.3-0.6,0.2l-3.2-1.8C4041.6,636.9,4041.5,636.6,4041.6,636.4z"/>
					<path class="st31" d="M4068.3,635L4068.3,635c0.2,0.2,0.2,0.5,0,0.7l-2.6,2.6c-0.2,0.2-0.5,0.2-0.7,0l0,0
						c-0.2-0.2-0.2-0.5,0-0.7l2.6-2.6C4067.9,634.8,4068.1,634.8,4068.3,635z"/>
				</g>
				<g id="Group-42_1_" transform="translate(6.000000, 8.000000)">
					<path id="Rectangle-9_1_" class="st32" d="M4044.4,629.9L4044.4,629.9c0.2,0,0.4,0.2,0.4,0.4v2.7c0,0.2-0.2,0.4-0.4,0.4l0,0
						c-0.2,0-0.4-0.2-0.4-0.4v-2.7C4044,630.1,4044.2,629.9,4044.4,629.9z"/>
					<path id="Rectangle-9-Copy-7_1_" class="st32" d="M4042.6,637L4042.6,637c0.2,0,0.4,0.2,0.4,0.4v2.7c0,0.2-0.2,0.4-0.4,0.4l0,0
						c-0.2,0-0.4-0.2-0.4-0.4v-2.7C4042.2,637.2,4042.4,637,4042.6,637z"/>
					<path id="Rectangle-9-Copy-10_1_" class="st32" d="M4045.3,644.1L4045.3,644.1c0.2,0,0.4,0.2,0.4,0.4v2.7
						c0,0.2-0.2,0.4-0.4,0.4l0,0c-0.2,0-0.4-0.2-0.4-0.4v-2.7C4044.8,644.3,4045,644.1,4045.3,644.1z"/>
					<path id="Rectangle-9-Copy-2_1_" class="st32" d="M4048.8,629.9L4048.8,629.9c0.2,0,0.4,0.2,0.4,0.4v2.7c0,0.2-0.2,0.4-0.4,0.4
						l0,0c-0.2,0-0.4-0.2-0.4-0.4v-2.7C4048.3,630.1,4048.5,629.9,4048.8,629.9z"/>
					<path id="Rectangle-9-Copy-8_1_" class="st32" d="M4047,637L4047,637c0.2,0,0.4,0.2,0.4,0.4v2.7c0,0.2-0.2,0.4-0.4,0.4l0,0
						c-0.2,0-0.4-0.2-0.4-0.4v-2.7C4046.6,637.2,4046.8,637,4047,637z"/>
					<path id="Rectangle-9-Copy-11_1_" class="st32" d="M4049.7,644.1L4049.7,644.1c0.2,0,0.4,0.2,0.4,0.4v2.7
						c0,0.2-0.2,0.4-0.4,0.4l0,0c-0.2,0-0.4-0.2-0.4-0.4v-2.7C4049.2,644.3,4049.4,644.1,4049.7,644.1z"/>
					<path id="Rectangle-9-Copy-6_1_" class="st32" d="M4053.2,629.9L4053.2,629.9c0.2,0,0.4,0.2,0.4,0.4v2.7c0,0.2-0.2,0.4-0.4,0.4
						l0,0c-0.2,0-0.4-0.2-0.4-0.4v-2.7C4052.7,630.1,4052.9,629.9,4053.2,629.9z"/>
					<path id="Rectangle-9-Copy-9_1_" class="st32" d="M4051.4,637L4051.4,637c0.2,0,0.4,0.2,0.4,0.4v2.7c0,0.2-0.2,0.4-0.4,0.4l0,0
						c-0.2,0-0.4-0.2-0.4-0.4v-2.7C4051,637.2,4051.2,637,4051.4,637z"/>
					<path id="Rectangle-9-Copy-12_1_" class="st32" d="M4054,644.1L4054,644.1c0.2,0,0.4,0.2,0.4,0.4v2.7c0,0.2-0.2,0.4-0.4,0.4
						l0,0c-0.2,0-0.4-0.2-0.4-0.4v-2.7C4053.6,644.3,4053.8,644.1,4054,644.1z"/>
				</g>
				<g transform="translate(19.000000, 11.000000)" class="st33">
					<path class="st32" d="M4049.1,631L4049.1,631c0.2,0,0.4,0.2,0.4,0.4v1.9c0,0.2-0.2,0.4-0.4,0.4l0,0c-0.2,0-0.4-0.2-0.4-0.4
						v-1.9C4048.7,631.2,4048.9,631,4049.1,631z"/>
					<path class="st32" d="M4047.4,636.6L4047.4,636.6c0.2,0,0.4,0.2,0.4,0.4v1.9c0,0.2-0.2,0.4-0.4,0.4l0,0c-0.2,0-0.4-0.2-0.4-0.4
						V637C4046.9,636.8,4047.1,636.6,4047.4,636.6z"/>
					<path class="st32" d="M4049.1,643.2L4049.1,643.2c0.2,0,0.4,0.2,0.4,0.4v1.9c0,0.2-0.2,0.4-0.4,0.4l0,0c-0.2,0-0.4-0.2-0.4-0.4
						v-1.9C4048.7,643.4,4048.9,643.2,4049.1,643.2z"/>
					<path class="st32" d="M4052.6,631L4052.6,631c0.2,0,0.4,0.2,0.4,0.4v1.9c0,0.2-0.2,0.4-0.4,0.4l0,0c-0.2,0-0.4-0.2-0.4-0.4
						v-1.9C4052.1,631.2,4052.3,631,4052.6,631z"/>
					<path class="st32" d="M4050.8,636.6L4050.8,636.6c0.2,0,0.4,0.2,0.4,0.4v1.9c0,0.2-0.2,0.4-0.4,0.4l0,0c-0.2,0-0.4-0.2-0.4-0.4
						V637C4050.4,636.8,4050.6,636.6,4050.8,636.6z"/>
					<path class="st32" d="M4052.6,643.2L4052.6,643.2c0.2,0,0.4,0.2,0.4,0.4v1.9c0,0.2-0.2,0.4-0.4,0.4l0,0c-0.2,0-0.4-0.2-0.4-0.4
						v-1.9C4052.1,643.4,4052.3,643.2,4052.6,643.2z"/>
					<path class="st32" d="M4055.2,631L4055.2,631c0.2,0,0.4,0.2,0.4,0.4v1.9c0,0.2-0.2,0.4-0.4,0.4l0,0c-0.2,0-0.4-0.2-0.4-0.4
						v-1.9C4054.8,631.2,4054.9,631,4055.2,631z"/>
					<path class="st32" d="M4054.3,636.6L4054.3,636.6c0.2,0,0.4,0.2,0.4,0.4v1.9c0,0.2-0.2,0.4-0.4,0.4l0,0c-0.2,0-0.4-0.2-0.4-0.4
						V637C4053.9,636.8,4054.1,636.6,4054.3,636.6z"/>
					<path class="st32" d="M4056.1,643.2L4056.1,643.2c0.2,0,0.4,0.2,0.4,0.4v1.9c0,0.2-0.2,0.4-0.4,0.4l0,0c-0.2,0-0.4-0.2-0.4-0.4
						v-1.9C4055.6,643.4,4055.8,643.2,4056.1,643.2z"/>
				</g>
				
					<g transform="translate(27.000000, 14.000000) scale(-1, 1) translate(-27.000000, -14.000000) translate(22.000000, 7.000000)">
					<path class="st34" d="M-4046.6,631.7L-4046.6,631.7c0.2-0.2,0.5-0.1,0.7,0.1l1.6,2.2c0.2,0.2,0.1,0.5-0.1,0.7l0,0
						c-0.2,0.2-0.5,0.1-0.7-0.1l-1.6-2.2C-4046.9,632.2-4046.8,631.9-4046.6,631.7z"/>
					<path class="st34" d="M-4039.9,629.6L-4039.9,629.6c0.3,0,0.5,0.2,0.5,0.5v2.7c0,0.3-0.2,0.5-0.5,0.5l0,0
						c-0.3,0-0.5-0.2-0.5-0.5V630C-4040.3,629.8-4040.1,629.6-4039.9,629.6z"/>
					<path class="st34" d="M-4047.5,643.2L-4047.5,643.2c0,0.3-0.2,0.5-0.5,0.5h-2.7c-0.3,0-0.5-0.2-0.5-0.5l0,0
						c0-0.3,0.2-0.5,0.5-0.5h2.7C-4047.7,642.7-4047.5,642.9-4047.5,643.2z"/>
					<path class="st34" d="M-4047.5,647.7L-4047.5,647.7c0,0.3-0.2,0.5-0.5,0.5h-2.7c-0.3,0-0.5-0.2-0.5-0.5l0,0
						c0-0.3,0.2-0.5,0.5-0.5h2.7C-4047.7,647.3-4047.5,647.5-4047.5,647.7z"/>
					<path class="st34" d="M-4050.9,636.9L-4050.9,636.9c0.1-0.2,0.4-0.3,0.6-0.2l2.4,1.3c0.2,0.1,0.3,0.4,0.2,0.6l0,0
						c-0.1,0.2-0.4,0.3-0.6,0.2l-2.4-1.3C-4050.9,637.4-4051,637.1-4050.9,636.9z"/>
				</g>
			</g>
		</g>
	</g>
</g>
<g>
	<path class="st35" d="M2767,880.1c0,0-14.3-1-12.5-7.5C2756.4,866.1,2766.3,874.1,2767,880.1"/>
	<path class="st36" d="M2795.2,873.5l11.8,5c23.2,3.8,38.5,6.8,38,20l-77.1-0.6c0,0-5.4-14.7,4.4-24.2
		C2772.3,873.8,2784.6,879.6,2795.2,873.5z"/>
	<path id="Path-59_2_" class="st37" d="M2773.4,270.2l-7,29.8c10.9,22.5,18.7,31.1,23.6,25.8c4.8-5.3,7.1-25.2,6.2-50.8
		L2773.4,270.2z"/>
	<path id="Path-16_2_" class="st38" d="M2792.4,365.9c4.7,0,2.2,11.1-11.1,15.5c-21.6,7.3-48.6-6.6-39.8-15.5
		c1.4-1.4,6.1-7.4,6.6-9.8c4.3-19.6,3.1-30.9-3.5-34l31.6,6.1l5.2,35.5C2781.4,363.5,2787.9,365.9,2792.4,365.9z"/>
	<path id="Path-17_2_" class="st39" d="M2773.6,260.2c-10.8-8-64.9,39.9-36.3,66.8c19.2,17.9,35.5,21.8,48.8,15.5
		c18.9-33.6,11.3-43.4,8.7-49.6c-1.7-4.2-2.1-9-1.1-14.6C2787.6,271.6,2780.9,265.5,2773.6,260.2z"/>
	
		<ellipse id="Oval_4_" transform="matrix(0.9725 -0.2329 0.2329 0.9725 7.0256 652.6845)" class="st40" cx="2767.4" cy="296.6" rx="1.9" ry="2.9"/>
	
		<ellipse id="Oval_1_" transform="matrix(0.9725 -0.2329 0.2329 0.9725 7.93 657.3717)" class="st40" cx="2787.7" cy="295.1" rx="1.9" ry="2.9"/>
	<path id="Path-18_2_" class="st15" d="M2779,312.6l7.1-1.4c2-1.2-0.2-4.8-1.3-6.8l-5.4-9.7"/>
	
		<ellipse id="Oval-2_4_" transform="matrix(0.9893 -0.1457 0.1457 0.9893 -15.7007 405.835)" class="st41" cx="2762.6" cy="310.1" rx="8.9" ry="6.6"/>
	
		<ellipse id="Oval-2_3_" transform="matrix(0.9077 -0.4195 0.4195 0.9077 129.326 1199.5823)" class="st41" cx="2792.2" cy="305.7" rx="4.5" ry="5.4"/>
	<path id="Path-65_1_" class="st39" d="M2786.1,343.3c-8,5.2-24.6,1.3-43.5-7.6c-2.8-13.5-2.5-16.8,0.1-17c2.6-0.1,4.1-3.4,4.5-10.1
		c7.3,15.5,27.1,9.8,36.5,7.9c6.2-1.3,12.5-3.2,15-7.8C2797.7,328,2794,338.1,2786.1,343.3z"/>
	<path id="Path-58_2_" class="st42" d="M2800.3,262.7c-4.9-3.3-9.3-5.8-12.9-7.5c-32.7-15-50.5,15.8-50.5,15.8s-10.6-0.6-18.2,11
		c-7.6,11.7-1.8,41.7,9.1,45.9c5.3,2,13.2,6.8,17.3,9.4c2.9,1.8-1-19.4-4.6-20.8c-8.2-3.1-9.9-12.7-4.2-17.6
		c3.4-2.9,7.5,7.4,8.4,5.2c1-2.2,4.6-15.4,5.9-20c1.3-4.7,5.2-6.7,23.5-2.7c12.2,2.7,18.8,0,24.4-7.6
		C2800.7,270.4,2805.2,266,2800.3,262.7z"/>
	<path id="Path-19_2_" class="st43" d="M2781.5,330.3c-4.6,0.2-9.5-2.7-11.7-9.7c6.3,2,13.9,2.6,21.5-1.1
		C2788.7,328.5,2785.7,330.1,2781.5,330.3z"/>
	<path id="Path-75_3_" class="st38" d="M2774.8,862.8l0.9,13.6c4.1,3.2,17.7,3.4,19.5,1.8l0.6-13.9L2774.8,862.8z"/>
	<path id="Path-76_4_" class="st44" d="M2806,536.2c-48.6-28.8-68,12.7-68,32.5c0,29.6,22.5,86.8,28.8,113.5
		c2.7,11.2-5.7,33.9-1.9,62.2l-0.2,132.1c5.9,4.1,43.4,2.3,43.5,2c0-11.7,22.2-170.7,19.5-198.2C2825,653,2806,536.2,2806,536.2z"/>
	<path id="Path-75_2_" class="st38" d="M2728.3,862.8l0.9,11.9c7.7,5.2,14.2,5.8,19.5,1.6l0.6-8.2L2728.3,862.8z"/>
	<path class="st45" d="M2930.2,310.8l-69.3,44c-13.2,4.4-40.8,3.8-57.5,6.6l-16-2.2l-15.4,18.2l-26.2-16.1l-17.7,2.2l-17.7,104
		l4.4,35.2l1.8,33.4h88.9c0,0,4.4-86.3,0-92.9s0-37.6,0-37.6s66.3-17.7,77.4-24.3c11.1-6.6,61.8-58.9,61.8-58.9"/>
	<path class="st19" d="M2801.9,466.7l58,3.6c1.2,0.1,2.2-0.9,2.2-2l4.6-73.1c0.1-1.2-0.9-2.2-2-2.2l-58-3.6c-1.2-0.1-2.2,0.9-2.2,2
		l-4.6,73C2799.9,465.5,2800.7,466.6,2801.9,466.7z"/>
	<circle class="st46" cx="2833.4" cy="429.8" r="5.7"/>
	<path class="st47" d="M2795.1,361.7c0,0-12.5-7.3-14.7-5c-2.2,2.2-6.5,15.6-8.7,20C2769.7,380.3,2785.4,373.3,2795.1,361.7z"/>
	<path class="st39" d="M2800.9,446.4c4.9-3.5,10.2-6.3,15.9-8.2c1.8-0.6,3.8-1.2,5.5-0.4c2.8,1.3,3.2,5.2,2.1,8.1
		c-1.6,4.3-5.3,7.4-8.5,10.6c-3.3,3.4-6.4,7.1-10,10.2c-3.7,3-8.4,3.5-13.1,3c-4.7-0.5-9.3-4.4-9.4-9.2c-0.1-4.6,3.5-6.5,6.6-9.9
		c4.5-5,8.2-10.6,11.9-16.2L2800.9,446.4z"/>
	<path class="st45" d="M2732.7,361.5c2.2,2.2-24.3-4.4-37.6,30.9c-13.2,35.4-11.1,101.7-2.2,104c8.9,2.2,97.4-24.3,99.6-22.1
		c2.2,2.2-2.2-24.3-2.2-24.3l-70.8,13.2c0,0,4.4-42,8.9-57.5C2732.7,390.3,2732.7,361.5,2732.7,361.5z"/>
	<path class="st47" d="M2790.2,452.2l-68.6,11.1l6.6-53.1l6.6-2.2c0,0-8.9,39.8-6.6,44.3C2730.5,456.6,2790.2,452.2,2790.2,452.2z"
		/>
	<polygon class="st47" points="2792.4,474.3 2714,493.3 2714.9,505.1 	"/>
	<path class="st47" d="M2774.8,377c0,0-24.4-24.3-33.3-19.9c-3.9,2-15.4,4.1-11.1,6.6C2759.6,381.2,2774.8,377,2774.8,377z"/>
	<path class="st48" d="M2787.9,589.3c0,0,6.6-22.1,11.8-53.1l-73.8,2.2L2787.9,589.3z"/>
	<path class="st49" d="M2782.2,653.2l8.4,56.4l-14,169.2c0,0-6.1,0.2-11.9-1C2762.8,877.6,2782.2,653.2,2782.2,653.2z"/>
	<path class="st50" d="M2748.7,874.1l37.3,7.8c0,0,21.1,2.3,20.7,16.5l-87.3-0.9c0,0-2.2-18.4,9.8-22.7
		C2729.2,874.8,2738.2,880.2,2748.7,874.1z"/>
	<path id="Path-76_2_" class="st51" d="M2716.7,536.2c-1.3,0-5.3,19.9-6.2,26.6c-1.7,12.2,5.2,58.3,6.6,130.5l1.2,183.4
		c5.9,4.1,44.1,4.5,49.8,1.5c0-7.8,11.6-137.4,14.7-186.1c5.2-82.9,22.4-135.8,23.1-155.9C2806.1,533.9,2794.5,537.1,2716.7,536.2z"
		/>
	<path id="Path-149-Copy_1_" class="st49" d="M2734.2,558.2c-6.8,3.4-12.5,2.3-17.2-3.1c11.4,2,21.1-2,28.9-12.3
		C2744.9,549.8,2740.9,554.9,2734.2,558.2z"/>
	<path class="st52" d="M2729.8,571.2c0,0,1.9,142.9,3.7,150.1c1.8,7.1-2.3,144.2-2.3,144.2"/>
	<polyline class="st53" points="2806.7,897.8 2806.2,901.9 2844.6,902 2845.1,897.9 2806.6,897.3 	"/>
	<polyline class="st2" points="2719.4,896.8 2719.4,901.9 2806.2,901.9 2806.7,897.8 2719.4,896.8 	"/>
	<path class="st39" d="M2931.6,311c-1-2.5,2.5-6,4.6-7.6c1.5-1.2,8.4-6.2,10.4-5.9c4.1,0.7-0.7,4.1-1.7,5.9
		c10.9,0.7,13.8-14.5,21-13.4c7.1,3.3,2.6,13.9-7.9,23.6c-3.1,2.9-10.5,8.1-14.8,7.4C2941.1,320.6,2931.6,312.3,2931.6,311z"/>
</g>
</svg>
